<svg xmlns="http://www.w3.org/2000/svg" xmlns:xlink="http://www.w3.org/1999/xlink" width="106" height="84" viewBox="0 0 106 84">
  <defs>
    <clipPath id="clip-mega_guru_">
      <rect width="106" height="84"/>
    </clipPath>
  </defs>
  <g id="mega_guru_" data-name="mega guru " clip-path="url(#clip-mega_guru_)">
    <g id="Group_1086" data-name="Group 1086" transform="translate(-58.446 -40.83)">
      <g id="Color" transform="translate(59.446 44.829)">
        <g id="Group_1069" data-name="Group 1069">
          <g id="Group_1066" data-name="Group 1066" transform="translate(0 56.722)">
            <path id="Path_1093" data-name="Path 1093" d="M1011.837,167.745a5.948,5.948,0,0,0-4.43-1.585,6.454,6.454,0,0,0-3.232.792,4.874,4.874,0,0,0-2.114,2.459h1.362a4.128,4.128,0,0,1,3.963-2.032,4.339,4.339,0,0,1,3.557,1.483,5.816,5.816,0,0,1,1.158,3.658,4.476,4.476,0,0,1-1.311,3.353,4.4,4.4,0,0,1-3.262,1.382,4.667,4.667,0,0,1-3.15-1.158,3.587,3.587,0,0,1-1.3-2.927,4.2,4.2,0,0,1,.346-1.666q.346-.812.914-.873a.566.566,0,0,1,.5.132.411.411,0,0,1,.111.416,3.3,3.3,0,0,1-.325.732,2.282,2.282,0,0,0-.2.833,2.6,2.6,0,0,0,.843,2.073,3.088,3.088,0,0,0,2.205.833,3.484,3.484,0,0,0,2.52-1.057,3.061,3.061,0,0,0,.976-2.5,3.263,3.263,0,0,0-.894-2.052,2.574,2.574,0,0,0-1.951-.874,2.112,2.112,0,0,0-1.972,1.036,1.551,1.551,0,0,0-1.524-.935,2.43,2.43,0,0,0-2.133,1.28,5.186,5.186,0,0,0-.915,2.987,6.771,6.771,0,0,0,1.117,3.964,5.176,5.176,0,0,0,2.033,1.7,6.357,6.357,0,0,0,2.8.62,5.752,5.752,0,0,0,4.674-2.052,7.292,7.292,0,0,0,1.586-5.142A7.062,7.062,0,0,0,1011.837,167.745Zm-3.739,2.48a.759.759,0,0,1,.539.223.711.711,0,0,1,.233.529.688.688,0,0,1-.224.518.772.772,0,0,1-1.076-.01.721.721,0,0,1-.224-.529A.656.656,0,0,1,1008.1,170.224Zm-1.971,1.321a1.613,1.613,0,0,0,1.788,1.28,2.105,2.105,0,0,0,1.1-.3,1.288,1.288,0,0,0,.629-.732,1.432,1.432,0,0,1,.041.346,1.543,1.543,0,0,1-.62,1.209,2.029,2.029,0,0,1-1.393.5,2.2,2.2,0,0,1-1.249-.407,1.245,1.245,0,0,1-.559-1.016A3.56,3.56,0,0,1,1006.127,171.545Z" transform="translate(-1001.574 -164.371)" fill="#da9014"/>
            <path id="Path_1094" data-name="Path 1094" d="M1037.1,175.915a4.338,4.338,0,0,0-2.835-.955,3.165,3.165,0,0,0-1.93.569,1.934,1.934,0,0,0-.833,1.646,2.034,2.034,0,0,0,.651,1.585,2.326,2.326,0,0,0,1.626.589,2.131,2.131,0,0,0,1.4-.528,1.544,1.544,0,0,0,.63-1.2,2.018,2.018,0,0,0-.488-1.483,1.79,1.79,0,0,1,1.362,1.93,2.129,2.129,0,0,1-1,1.829,3.415,3.415,0,0,1-2.053.63,3.771,3.771,0,0,1-2.591-.924A3.063,3.063,0,0,1,1030,177.2a3.256,3.256,0,0,1,1.158-2.52,3.989,3.989,0,0,1,2.682-.976,4.833,4.833,0,0,1,1.971.386q.976.426,1.037,1.117h1.219a2.457,2.457,0,0,0-.833-1.707,5.444,5.444,0,0,0-8.862,4.349,5.138,5.138,0,0,0,5.224,5.243,4.628,4.628,0,0,0,3.3-1.3,4.341,4.341,0,0,0,1.371-3.292A3.16,3.16,0,0,0,1037.1,175.915Zm-2.794,1.88a.9.9,0,0,1-.651.255.828.828,0,0,1-.62-.264.9.9,0,0,1-.254-.651.828.828,0,0,1,.264-.62.9.9,0,0,1,.651-.255.828.828,0,0,1,.62.265.9.9,0,0,1,.254.65A.827.827,0,0,1,1034.31,177.8Z" transform="translate(-1015.451 -167.644)" fill="#da9014"/>
            <path id="Path_1095" data-name="Path 1095" d="M1060.885,167.851V165.8a3.457,3.457,0,0,0,1.86-.381,1.338,1.338,0,0,0,.742-1.226,1.6,1.6,0,0,0-.61-1.325,2.234,2.234,0,0,0-1.4-.421h-2.8v.955h1.016v1.382h-.975V165.8h.975v1.6a5.931,5.931,0,0,0-1.118-.135,4.883,4.883,0,0,0-3.455,1.24v-1.178a3,3,0,0,0-.671-.062,4.114,4.114,0,0,0-2.134.488q-2.4,1.444-2.4,5.02a5.719,5.719,0,0,0,1.036,3.5,3.967,3.967,0,0,0,3.272,1.605,6.575,6.575,0,0,0,2.094-.239,5.53,5.53,0,0,0,1.484-.818v1.017a6.024,6.024,0,0,0,.691.04,4.3,4.3,0,0,0,3.5-1.605,6.427,6.427,0,0,0,.041-7.479A3.985,3.985,0,0,0,1060.885,167.851Zm0-4.4q1.037-.1,1.037.691,0,.65-1.037.651Zm-4.38,11.421a3.442,3.442,0,0,1-1.981.447,2.9,2.9,0,0,1-2.236-1.057,3.672,3.672,0,0,1-.772-2.418,3.816,3.816,0,0,1,.711-2.276,2.458,2.458,0,0,1,2.073-1.077,2.527,2.527,0,0,1,.772.122,5.285,5.285,0,0,0-1.057,2.439,8.018,8.018,0,0,0,.123,2.52h1.28a1.524,1.524,0,0,1-.082-.488,1.061,1.061,0,0,1,.255-.721.89.89,0,0,1,.661-.315.966.966,0,0,1,.914.467,1.375,1.375,0,0,1,.264.935A1.719,1.719,0,0,1,1056.505,174.868Zm3.425,1.382a2.68,2.68,0,0,1-1.951.345,4.647,4.647,0,0,0,1.139-3.028q.04-2.276-1.748-2.784a2.277,2.277,0,0,0-.63-.081,2.308,2.308,0,0,0-1.342.365q.345-1.605,2.8-1.463a2.849,2.849,0,0,1,2.093,1.1,3.926,3.926,0,0,1,.894,2.377A3.341,3.341,0,0,1,1059.93,176.25Z" transform="translate(-1026.601 -162.451)" fill="#da9014"/>
          </g>
          <g id="Group_1067" data-name="Group 1067" transform="translate(37.524 56.537)">
            <path id="Path_1096" data-name="Path 1096" d="M1087.857,180.763a4.066,4.066,0,0,0-1.185-.4,11.454,11.454,0,0,0-1.357-.168q-.7-.044-1.358-.064a9.811,9.811,0,0,1-1.185-.1,2.476,2.476,0,0,1-.839-.257.582.582,0,0,1-.316-.543.72.72,0,0,1,.114-.395,1.118,1.118,0,0,1,.271-.3,4.82,4.82,0,0,0,.909.257,5.487,5.487,0,0,0,.987.089,4.937,4.937,0,0,0,1.639-.272,3.977,3.977,0,0,0,1.373-.8,3.9,3.9,0,0,0,.943-1.314,4.346,4.346,0,0,0,.35-1.8,4.249,4.249,0,0,0-.227-1.441,3.4,3.4,0,0,0-.642-1.106q.227-.177.479-.415a4.467,4.467,0,0,0,.459-.5,3,3,0,0,0,.345-.557,1.35,1.35,0,0,0,.138-.587,1.175,1.175,0,0,0-.246-.79.887.887,0,0,0-.711-.286,2.816,2.816,0,0,0-.306.015c-.093.01-.184.025-.276.044s-.194.048-.306.084l-.386.123v.286a.73.73,0,0,1,.568.247.951.951,0,0,1,.222.661,1.794,1.794,0,0,1-.118.632,3.123,3.123,0,0,1-.307.6,3.933,3.933,0,0,0-1.363-.7,5.724,5.724,0,0,0-1.629-.228,5.3,5.3,0,0,0-1.639.252,3.926,3.926,0,0,0-1.372.76,3.68,3.68,0,0,0-.943,1.263,4.15,4.15,0,0,0-.35,1.762,4.575,4.575,0,0,0,.133,1.136,3.883,3.883,0,0,0,.375.953,3.536,3.536,0,0,0,.583.77,3.624,3.624,0,0,0,.745.577,4.228,4.228,0,0,0-.469.361,3.463,3.463,0,0,0-.445.474,2.459,2.459,0,0,0-.33.573,1.955,1.955,0,0,0,.2,1.787,2.04,2.04,0,0,0,.824.627c-.224.112-.445.232-.661.36a3.4,3.4,0,0,0-.588.434,2.056,2.056,0,0,0-.42.533,1.314,1.314,0,0,0-.158.637,1.207,1.207,0,0,0,.306.829,2.191,2.191,0,0,0,.869.563,5.932,5.932,0,0,0,1.368.321,14.2,14.2,0,0,0,1.811.1,10.2,10.2,0,0,0,1.16-.069,8.683,8.683,0,0,0,1.2-.222,6.826,6.826,0,0,0,1.115-.394,3.966,3.966,0,0,0,.928-.583,2.656,2.656,0,0,0,.637-.79,2.135,2.135,0,0,0,.237-1.012,2.108,2.108,0,0,0-1.155-2.019Zm-5.233-7.079a4.671,4.671,0,0,1,.207-1,1.9,1.9,0,0,1,.405-.711.868.868,0,0,1,.661-.271.886.886,0,0,1,.661.261,1.815,1.815,0,0,1,.4.686,4.356,4.356,0,0,1,.208.967,10.279,10.279,0,0,1,.059,1.116,11.189,11.189,0,0,1-.059,1.155,5.017,5.017,0,0,1-.208,1.032,2.035,2.035,0,0,1-.4.746.848.848,0,0,1-.661.286.865.865,0,0,1-.661-.272,1.884,1.884,0,0,1-.405-.715,4.771,4.771,0,0,1-.207-1.007,10.913,10.913,0,0,1-.06-1.145A10.684,10.684,0,0,1,1082.625,173.684Zm3.9,10.48a1.794,1.794,0,0,1-.6.489,3.7,3.7,0,0,1-.967.336,6.187,6.187,0,0,1-1.294.123,8.561,8.561,0,0,1-1.031-.059,3.418,3.418,0,0,1-.859-.207,1.478,1.478,0,0,1-.587-.4.926.926,0,0,1-.218-.627,1.115,1.115,0,0,1,.089-.43,1.942,1.942,0,0,1,.233-.405,2.521,2.521,0,0,1,.335-.365,4.509,4.509,0,0,1,.4-.321q.365.049.858.079c.329.02.669.041,1.017.064s.693.055,1.032.1a5.331,5.331,0,0,1,.908.188,1.876,1.876,0,0,1,.646.326.638.638,0,0,1,.247.518A.965.965,0,0,1,1086.524,184.164Z" transform="translate(-1079.386 -165.662)" fill="#0063b0"/>
            <path id="Path_1097" data-name="Path 1097" d="M1110.222,181.673a.489.489,0,0,1-.336.134.371.371,0,0,1-.227-.06.358.358,0,0,1-.119-.152.662.662,0,0,1-.05-.2c-.007-.069-.01-.133-.01-.192v-7.1a1.45,1.45,0,0,0-.108-.558,1.234,1.234,0,0,0-.326-.454,1.613,1.613,0,0,0-.543-.306,2.313,2.313,0,0,0-.76-.114,2.6,2.6,0,0,0-.913.153,3.08,3.08,0,0,0-.726.38,3.192,3.192,0,0,0-.538.479,5.555,5.555,0,0,0-.37.459l.247.207a2.659,2.659,0,0,1,.271-.271.494.494,0,0,1,.331-.133.37.37,0,0,1,.227.059.363.363,0,0,1,.119.153.665.665,0,0,1,.049.2c.007.069.01.134.01.192v5.766c-.052.066-.136.164-.252.3a3.809,3.809,0,0,1-.409.4,2.726,2.726,0,0,1-.523.351,1.237,1.237,0,0,1-.573.148.606.606,0,0,1-.306-.074.664.664,0,0,1-.213-.193.911.911,0,0,1-.128-.261.936.936,0,0,1-.045-.281v-6.6a1.443,1.443,0,0,0-.108-.558,1.235,1.235,0,0,0-.326-.454,1.611,1.611,0,0,0-.543-.306,2.313,2.313,0,0,0-.76-.114,2.6,2.6,0,0,0-.913.153,3.082,3.082,0,0,0-.726.38,3.192,3.192,0,0,0-.538.479,5.437,5.437,0,0,0-.37.459l.246.207a2.722,2.722,0,0,1,.271-.271.494.494,0,0,1,.331-.133.376.376,0,0,1,.228.059.369.369,0,0,1,.118.153.685.685,0,0,1,.049.2c.006.069.01.134.01.192v6.112a3.282,3.282,0,0,0,.119.868,2.3,2.3,0,0,0,.376.78,1.88,1.88,0,0,0,.676.558,2.232,2.232,0,0,0,1.013.212,2.442,2.442,0,0,0,.611-.079,3.466,3.466,0,0,0,.592-.212,5.032,5.032,0,0,0,.553-.3q.266-.168.5-.345a7.708,7.708,0,0,0,1.036-.938v.444a1.439,1.439,0,0,0,.109.557,1.2,1.2,0,0,0,.331.454,1.648,1.648,0,0,0,.543.306,2.265,2.265,0,0,0,.756.114,2.58,2.58,0,0,0,.918-.153,3.086,3.086,0,0,0,.721-.38,3.226,3.226,0,0,0,.538-.478q.222-.252.37-.459l-.237-.207Q1110.37,181.539,1110.222,181.673Z" transform="translate(-1089.913 -167.559)" fill="#0063b0"/>
            <path id="Path_1098" data-name="Path 1098" d="M1129.742,172.673a1.352,1.352,0,0,0-.475.089,2.3,2.3,0,0,0-.459.237,3.7,3.7,0,0,0-.429.336q-.208.188-.385.385a8.211,8.211,0,0,0-.8,1.037c0-.1,0-.219-.01-.36a2.459,2.459,0,0,0-.064-.444,2.284,2.284,0,0,0-.164-.459,1.373,1.373,0,0,0-.3-.409,1.453,1.453,0,0,0-.493-.3,2.068,2.068,0,0,0-.726-.114,3.438,3.438,0,0,0-.789.089,4.414,4.414,0,0,0-.7.228,3.875,3.875,0,0,0-.608.321,5.642,5.642,0,0,0-.508.37l.207.247a1.567,1.567,0,0,1,.257-.168.633.633,0,0,1,.286-.059.489.489,0,0,1,.449.212.914.914,0,0,1,.134.5v7.622a1.4,1.4,0,0,0,.039.286.75.75,0,0,0,.2.345,1.291,1.291,0,0,0,.459.292,2.245,2.245,0,0,0,.824.123,2.406,2.406,0,0,0,.825-.114,1.225,1.225,0,0,0,.454-.271.707.707,0,0,0,.192-.336,1.465,1.465,0,0,0,.04-.306v-6.408q.208-.178.459-.376a5.144,5.144,0,0,1,.533-.365,3.68,3.68,0,0,1,.577-.282,1.672,1.672,0,0,1,.6-.114.893.893,0,0,1,.632.2.913.913,0,0,1,.276.509h.277a4.813,4.813,0,0,0,.213-.756,3.848,3.848,0,0,0,.054-.646,1.179,1.179,0,0,0-.286-.845A1.039,1.039,0,0,0,1129.742,172.673Z" transform="translate(-1101.88 -167.559)" fill="#0063b0"/>
            <path id="Path_1099" data-name="Path 1099" d="M1150.145,181.673a.489.489,0,0,1-.336.134.374.374,0,0,1-.227-.06.363.363,0,0,1-.118-.152.662.662,0,0,1-.05-.2c-.007-.069-.01-.133-.01-.192v-7.1a1.445,1.445,0,0,0-.108-.558,1.236,1.236,0,0,0-.325-.454,1.614,1.614,0,0,0-.543-.306,2.31,2.31,0,0,0-.76-.114,2.6,2.6,0,0,0-.914.153,3.087,3.087,0,0,0-.725.38,3.2,3.2,0,0,0-.538.479,5.577,5.577,0,0,0-.37.459l.247.207a2.66,2.66,0,0,1,.272-.271.494.494,0,0,1,.331-.133.332.332,0,0,1,.346.212.676.676,0,0,1,.049.2c.007.069.01.134.01.192v5.766c-.052.066-.136.164-.252.3a3.82,3.82,0,0,1-.409.4,2.726,2.726,0,0,1-.523.351,1.24,1.24,0,0,1-.573.148.6.6,0,0,1-.306-.074.671.671,0,0,1-.213-.193.926.926,0,0,1-.128-.261.94.94,0,0,1-.045-.281v-6.6a1.454,1.454,0,0,0-.108-.558,1.241,1.241,0,0,0-.326-.454,1.614,1.614,0,0,0-.543-.306,2.313,2.313,0,0,0-.76-.114,2.6,2.6,0,0,0-.914.153,3.087,3.087,0,0,0-.725.38,3.2,3.2,0,0,0-.538.479,5.413,5.413,0,0,0-.37.459l.246.207a2.659,2.659,0,0,1,.271-.271.494.494,0,0,1,.331-.133.372.372,0,0,1,.227.059.366.366,0,0,1,.119.153.665.665,0,0,1,.049.2c.007.069.01.134.01.192v6.112a3.282,3.282,0,0,0,.119.868,2.311,2.311,0,0,0,.375.78,1.883,1.883,0,0,0,.676.558,2.231,2.231,0,0,0,1.013.212,2.442,2.442,0,0,0,.611-.079,3.461,3.461,0,0,0,.592-.212,5.024,5.024,0,0,0,.554-.3q.266-.168.5-.345a7.709,7.709,0,0,0,1.036-.938v.444a1.441,1.441,0,0,0,.108.557,1.205,1.205,0,0,0,.331.454,1.648,1.648,0,0,0,.543.306,2.266,2.266,0,0,0,.756.114,2.582,2.582,0,0,0,.918-.153,3.1,3.1,0,0,0,.721-.38,3.247,3.247,0,0,0,.538-.478q.221-.252.37-.459l-.237-.207Q1150.293,181.539,1150.145,181.673Z" transform="translate(-1110.583 -167.559)" fill="#0063b0"/>
            <path id="Path_1100" data-name="Path 1100" d="M1168.074,187.826a1.7,1.7,0,0,0-.533-.36,1.662,1.662,0,0,0-1.3,0,1.633,1.633,0,0,0-.528.36,1.693,1.693,0,0,0-.351.533,1.733,1.733,0,0,0,0,1.308,1.648,1.648,0,0,0,.351.523,1.608,1.608,0,0,0,.528.35,1.683,1.683,0,0,0,2.2-.873,1.673,1.673,0,0,0,0-1.308A1.72,1.72,0,0,0,1168.074,187.826Z" transform="translate(-1123.833 -175.149)" fill="#0063b0"/>
            <path id="Path_1101" data-name="Path 1101" d="M1178.633,162.665a1.285,1.285,0,0,0-.523-.424,2.327,2.327,0,0,0-1-.173,3.434,3.434,0,0,0-.79.089,4.634,4.634,0,0,0-.706.227,3.646,3.646,0,0,0-.608.321,5.936,5.936,0,0,0-.5.37l.2.237a1.267,1.267,0,0,1,.262-.163.72.72,0,0,1,.291-.054.488.488,0,0,1,.449.212.921.921,0,0,1,.134.5v12.736a1.6,1.6,0,0,0,.034.286.762.762,0,0,0,.178.345,1.139,1.139,0,0,0,.439.292,2.2,2.2,0,0,0,.82.123,2.492,2.492,0,0,0,.834-.114,1.338,1.338,0,0,0,.474-.271.716.716,0,0,0,.206-.336,1.261,1.261,0,0,0,.045-.306V163.7a4.214,4.214,0,0,0-.035-.5A1.212,1.212,0,0,0,1178.633,162.665Z" transform="translate(-1128.635 -162.068)" fill="#0063b0"/>
            <path id="Path_1102" data-name="Path 1102" d="M1200.871,179.958a2.094,2.094,0,0,1-.228.1,1.7,1.7,0,0,1-.217.07,1,1,0,0,1-.237.029,2.868,2.868,0,0,1-1.432-.435,6.638,6.638,0,0,1-1.565-1.348,16.915,16.915,0,0,1-1.693-2.33,34.192,34.192,0,0,1-1.807-3.381,4.951,4.951,0,0,0,1.146-.785,4.129,4.129,0,0,0,.725-.888,3.4,3.4,0,0,0,.385-.928,3.841,3.841,0,0,0,.114-.9,2.2,2.2,0,0,0-.094-.573,1.976,1.976,0,0,0-.326-.646,2.042,2.042,0,0,0-.607-.533,1.816,1.816,0,0,0-.938-.222,2.749,2.749,0,0,0-1.165.247,4.331,4.331,0,0,0-.987.632,6.836,6.836,0,0,0-.849.864q-.395.478-.74.943V163.7a4.212,4.212,0,0,0-.035-.5,1.219,1.219,0,0,0-.2-.533,1.286,1.286,0,0,0-.524-.424,2.326,2.326,0,0,0-1-.173,3.436,3.436,0,0,0-.79.089,4.657,4.657,0,0,0-.706.227,3.646,3.646,0,0,0-.608.321,5.908,5.908,0,0,0-.5.37l.2.237a1.265,1.265,0,0,1,.261-.163.72.72,0,0,1,.291-.054.488.488,0,0,1,.449.212.916.916,0,0,1,.134.5v12.736a1.556,1.556,0,0,0,.034.286.753.753,0,0,0,.178.345,1.14,1.14,0,0,0,.439.292,2.206,2.206,0,0,0,.82.123,2.491,2.491,0,0,0,.834-.114,1.333,1.333,0,0,0,.474-.271.713.713,0,0,0,.207-.336,1.279,1.279,0,0,0,.045-.306v-5.095q.177-.434.454-.963a7.518,7.518,0,0,1,.617-.987,4.4,4.4,0,0,1,.716-.77,1.17,1.17,0,0,1,.741-.311.531.531,0,0,1,.291.068.524.524,0,0,1,.158.158.441.441,0,0,1,.064.183c.006.063.009.107.009.133a3.592,3.592,0,0,1-.069.642,2.81,2.81,0,0,1-.345.859,6.389,6.389,0,0,1-.82,1.081,10.283,10.283,0,0,1-1.49,1.3q.7,1.68,1.352,2.932a21.61,21.61,0,0,0,1.269,2.162,10.534,10.534,0,0,0,1.2,1.5,6.437,6.437,0,0,0,1.16.949,3.942,3.942,0,0,0,1.141.493,4.843,4.843,0,0,0,1.151.138,8.858,8.858,0,0,0,1.105-.06,5.837,5.837,0,0,0,.819-.158,3.859,3.859,0,0,0,.632-.231q.276-.134.543-.282Z" transform="translate(-1134.583 -162.068)" fill="#0063b0"/>
          </g>
          <g id="Group_1068" data-name="Group 1068" transform="translate(20.408)">
            <path id="Path_1103" data-name="Path 1103" d="M1110.591,96.287c-.245-.1-.78-.359-1.123-.458v.245a1.63,1.63,0,0,0,.54.54,3.3,3.3,0,0,0,.834.295l.589-.589A2.541,2.541,0,0,1,1110.591,96.287Z" transform="translate(-1077.845 -71.235)" fill="#0063b0"/>
            <path id="Path_1104" data-name="Path 1104" d="M1141.119,61.653a6.834,6.834,0,0,0,.959,3.279,2.242,2.242,0,0,0,.777.734,1.464,1.464,0,0,0,.274.112c.066.017.1.023.1.017s-.133-.053-.343-.184a2.336,2.336,0,0,1-.709-.741,7.159,7.159,0,0,1-.891-3.229,21.67,21.67,0,0,1-.018-2.342.342.342,0,0,0,.1-.255.337.337,0,0,0-.083-.2c.007-.213.012-.415.013-.6.005-.434.01-.786.013-1.031,0-.057,0-.108,0-.153l0-.039a.212.212,0,0,0,.006-.092c0-.068,0-.105,0-.106s-.009.013-.014.033a.883.883,0,0,0-.2-.291,98.252,98.252,0,0,1-9.76-10.891,2.285,2.285,0,0,0-2.192-.812,106.311,106.311,0,0,1-14.917,1.757c-.281.021-.463.1-.5.228s.067.3.286.486q1.969,1.672,3.882,3.4l.555-1.342c.507-.856,2.5-.567,3.3-.475a27.515,27.515,0,0,1,6.372,1.549,26.876,26.876,0,0,1,5.8,2.956c.654.447,2.328,1.514,2.1,2.473l-.565,1.346c1.766-.035,3.531-.034,5.3-.012a.96.96,0,0,0,.437-.076c0,.021-.01.039-.015.062l0,.018-.229.991-.115.521a.349.349,0,0,0-.2.325.337.337,0,0,0,.066.176c-.045.148-.092.3-.137.46a14.3,14.3,0,0,0-.332,1.857,6.767,6.767,0,0,0,.342,3.389,2.191,2.191,0,0,0,.63.852,1.389,1.389,0,0,0,.25.156c.062.028.1.04.1.035s-.121-.074-.3-.238a2.294,2.294,0,0,1-.562-.848,7.107,7.107,0,0,1-.284-3.328,16.067,16.067,0,0,1,.315-1.836c.031-.117.064-.231.1-.343-.016.108-.033.216-.05.327-.1.561-.213,1.186-.269,1.847a6.732,6.732,0,0,0,.42,3.357,2.188,2.188,0,0,0,.646.832,1.4,1.4,0,0,0,.252.15c.062.027.1.037.1.032s-.122-.071-.307-.23a2.29,2.29,0,0,1-.578-.83,7.061,7.061,0,0,1-.361-3.3c.005-.064.016-.123.023-.186,0,.066-.007.131-.009.2a6.788,6.788,0,0,0,.634,3.35,2.216,2.216,0,0,0,.7.8,1.455,1.455,0,0,0,.262.136c.064.022.1.031.1.027s-.127-.064-.323-.214a2.317,2.317,0,0,1-.633-.8,7.121,7.121,0,0,1-.571-3.294c.006-.239.02-.473.036-.7,0,.271.013.545.032.83a6.834,6.834,0,0,0,.96,3.278,2.24,2.24,0,0,0,.777.733,1.431,1.431,0,0,0,.274.112c.066.017.1.023.1.017s-.133-.053-.343-.184a2.332,2.332,0,0,1-.709-.741,7.162,7.162,0,0,1-.891-3.228c-.045-.658-.052-1.293-.035-1.863.007-.16.017-.314.028-.465a.336.336,0,0,0,.043-.01A18.17,18.17,0,0,0,1141.119,61.653Zm.055-3.306c-.006.126-.013.258-.02.4-.007,0-.012-.008-.019-.011C1141.148,58.6,1141.162,58.468,1141.174,58.346Z" transform="translate(-1080.048 -44.829)" fill="#0063b0"/>
            <path id="Path_1105" data-name="Path 1105" d="M1094.339,95.316h-13.345c-.1-.314-.421-1.2-.874-1.293a5.94,5.94,0,0,1-1.183-.386s-1.072-2.111-.581-2.7a8.7,8.7,0,0,0,2.312-3.317,14.114,14.114,0,0,0,.54-3.14l.669-.153s-.522-4.067-1.454-4.655c0,0,.461-1.385-.078-1.876a1.882,1.882,0,0,0-1-.528,2.5,2.5,0,0,0-2.088-2.765,5.218,5.218,0,0,0-4.71.969,9.428,9.428,0,0,0-2.475,3.268A23.6,23.6,0,0,0,1068.942,81l.736.049a16.58,16.58,0,0,1-1.865,3.189l.344.295s-1.472,1.03-1.57,1.668a6.974,6.974,0,0,0-4.759,2.552s-2.56.026-1.076-1.64c.427-.48,1.858.021,2.294-.433a1.767,1.767,0,0,0-.432-2.833c-1.129-.442-.294,1.128-.049,1.423s.687.49.246.883-1.735.057-2.274.351a1.633,1.633,0,0,0-.964,1.169,1.844,1.844,0,0,0,.343,1.52,4.224,4.224,0,0,0,1.129.786l.2.932s-1.048.255-1.3.662a11.862,11.862,0,0,0-.167,2.887s.015.773.191.862h-13.1V67.388h43.277a66.494,66.494,0,0,0-12.453-3.472h-30.926a2.867,2.867,0,0,0-2.859,2.859V97a2.868,2.868,0,0,0,2.859,2.859h47.688A2.868,2.868,0,0,0,1097.3,97V70.671q-1.461-.78-2.96-1.483Zm-14.716-17.279.3.2c.265.177.181.595.182.595h0l-.2.509a4.311,4.311,0,0,1-.273-.564,1.516,1.516,0,0,0-.391-.6c-.03-.032-.063-.066-.1-.1Zm.023,6.254-1.718.081a2.89,2.89,0,0,1,.1-.9c.121-.259.375-.228.814-.274s.828.092.8.538C1079.632,83.982,1079.645,84.292,1079.645,84.292Zm-.254-1.628a1.568,1.568,0,0,1-.344-.932c0-.245.442-.442.442-.442s.255-.221.392-.2c.385.069.089,1.663.089,1.663A.455.455,0,0,1,1079.391,82.664Zm-.2-3.974a.784.784,0,0,1-.294.785.933.933,0,0,0,.245.687c.294.343.564.43.613.625s-.37.155-.37.155l-1.238.038.277.362c.343.245.473.095.325.585s-.147.638-.589.932-.715.542-1.128.49c-.574-.071-.834-.245-.981-1.079s-.2-1.03-.638-1.325-.932-.294-.981-.883a2.876,2.876,0,0,1,.294-1.766c.295-.343.589-.785.785-.785a.964.964,0,0,1,.834.147,2.258,2.258,0,0,1,.687.588l.049-.638s.932.442,1.128.834.343-.343.343-.343A1.032,1.032,0,0,1,1079.2,78.69Zm-5.4-.148-.442.54-.294-.54a.317.317,0,0,1,.049-.49,2.649,2.649,0,0,1,.736-.393l.736-.049C1074.191,78.052,1073.8,78.543,1073.8,78.543Zm-2.943,1.57-.441-.1a30.908,30.908,0,0,1,1.766-3.336,3.778,3.778,0,0,1,3.434-1.767,3.709,3.709,0,0,1,2.865.956c.514.845-.017,2.582-.49,1.575a3.42,3.42,0,0,0-1.492-1.7c.687.981.294,1.472.294,1.472-.343-.883-1.212-1.451-2.823-1.26-.043.005,2.786,1.263,1.439,1.062a3.479,3.479,0,0,0-1.216.148,2.6,2.6,0,0,0-1.717.982c-.294.49.491,3.091.491,3.091-.2-.785.687-1.619.687-1.619,0,2.7,1.472,3.14,1.472,3.14.736,1.57,1.619,1.276,1.619,1.276l.147,1.668.589-.343.338.945c.442-1.226,2.165-1.779,2.165-1.779l.147-1.374.2.1.049-2.355c.589.638.589,2.552.589,2.552l-.491.2c.295,2.011-2.061,4.71-2.061,4.71l-.147-.834-1.079,1.374-1.472-3.287s-.295,1.423-.442.245a8.513,8.513,0,0,0-1.619-2.993l-.343.687a15.3,15.3,0,0,1-1.472-2.6,5.445,5.445,0,0,0,1.226,3.729l.442-.442c1.03.834,2.061,5.348,2.061,5.348l-.458-.49c-.557-1.22-1.75-3.385-1.75-3.385l-.588.49a6.036,6.036,0,0,1-1.864-3.777l-.638,1.226-1.3.064A29.7,29.7,0,0,0,1070.855,80.113Zm-8.892,15.2c.117-.192.649-1.154-.406-1.15-.329,0,.075-1.543.075-1.543l1.079-.2.219,2.5a.463.463,0,0,0,.29.389Zm5.21,0h-1.92a.654.654,0,0,0-.132-.655,2.01,2.01,0,0,0-.96-.259l-.027-1.043a14.506,14.506,0,0,0,1.717-1.079c.295-.294,1.4.227,1.4.227A27.685,27.685,0,0,0,1067.173,95.316Zm2.671-.455-2.158.121a15.909,15.909,0,0,0-.06-3.344,7.257,7.257,0,0,0,.63-1.615,4.612,4.612,0,0,1,1.325-2.6,7.3,7.3,0,0,0-2.6,3.434,6.682,6.682,0,0,1-2.159.785s1.177-.932,1.276-1.325c0,0-2.747,1.963-4.514,1.718a6.382,6.382,0,0,0-.687,1.979c.049.54.442.478.748.49s-.049.405-.049.405-1.043.086-1.19-.208a7.263,7.263,0,0,1,.1-2.912c.245-.245,3.68-.785,3.778-2.4,0,0-.736-.442-1.079-.1,0,0-.491-.883.981-1.717s1.913-.638,1.913-.638l-.49,1.08,3.434-3.189h.883l2.306,3.778.588-.687.491.834a8.4,8.4,0,0,1-4.437,3.107,8.467,8.467,0,0,1-.543,2.576S1070.5,94.206,1069.843,94.862Zm.154.455c.411-.178.525-.437.4-.744a.965.965,0,0,0-.948-.574l-.518.02.276-.826,4.98-1.944,1.423,2.551.347-.768,1.2,2.283Zm10.49-.288-2.992-.185-1.146-2.858,1.57-2.552.343.2,1.531-1.3A17.665,17.665,0,0,1,1077.478,91l.961,3.35s1.239-.147,1.68.245S1080.488,95.029,1080.488,95.029Z" transform="translate(-1043.893 -54.712)" fill="#0063b0"/>
            <path id="Path_1106" data-name="Path 1106" d="M1094.2,140.533h-11.176v1.043l-4.333,1.593v2.345h19.841v-2.345l-4.333-1.593Z" transform="translate(-1061.911 -94.381)" fill="#0063b0"/>
            <path id="Path_1107" data-name="Path 1107" d="M1137.752,59.283a24.831,24.831,0,0,0-5.539-2.824,25.364,25.364,0,0,0-6.087-1.479c-.692-.062-2.026-.292-2.652.206q-.618,1.493-1.234,2.987a53.981,53.981,0,0,1,16.021,6.076q.649-1.555,1.3-3.109C1139.421,60.356,1138.348,59.711,1137.752,59.283Z" transform="translate(-1084.458 -50.029)" fill="#0063b0"/>
            <path id="Path_1108" data-name="Path 1108" d="M1121.322,63.241a46.486,46.486,0,0,1,16.068,5.948l.226-.54a52.956,52.956,0,0,0-16.024-6.061Z" transform="translate(-1083.983 -54.025)" fill="#0063b0"/>
          </g>
        </g>
      </g>
    </g>
  </g>
</svg>
